<?xml version="1.0" encoding="UTF-8"?>
<svg id="Layer_1" xmlns="http://www.w3.org/2000/svg" version="1.1" viewBox="0 0 751.6 700">
  <!-- Generator: Adobe Illustrator 29.5.1, SVG Export Plug-In . SVG Version: 2.1.0 Build 141)  -->
  <defs>
    <style>
      .st0 {
        fill: #fff;
      }

      .st1 {
        fill: #076666;
      }
    </style>
  </defs>
  <rect class="st0" x="0" width="751.6" height="700"/>
  <g>
    <g>
      <path class="st1" d="M16.3,253c-2.3,0-4.6-.9-6.7-2.6-2.1-1.7-4-3.9-5.5-6.4s-2.6-5.3-3.2-8.5c-.6-3.1-.3-5.8.9-8.2L69.4,61.8c7-17.1,7.4-25.6,1.2-25.6s-8,.5-12.2,1.5c-4.3,1-8.9,3.4-14,7.3-5.1,3.9-10.7,9.9-16.9,18.1-1.6,1.6-3.2,2.2-5,2-1.7-.2-3-1.7-3.8-4.4,0-2.3.7-5.3,2-9,1.4-3.7,3-7.4,5-11.1,1.9-3.7,3.7-6.7,5.2-9,5.8-8.9,13.7-15.9,23.6-21,9.9-5,21.5-7.8,34.7-8.2,4.3,0,8.2,1.1,11.7,3.2s6.1,5.2,7.9,9,1.7,8.2-.3,12.8l-38.5,99.1c-1.2,2.7-.9,4.3.9,4.7,1.7.4,3.2-.4,4.4-2.3,15.9-27.2,32.2-50.2,48.7-69.1,16.5-18.8,32.4-33.1,47.5-42.9,15.2-9.7,28.6-14.6,40.2-14.6s15.2,2.8,21.3,8.5c6,5.6,9.9,13.2,11.7,22.7,1.7,9.5,0,20.5-5.5,32.9l-53.6,127.1c-5.8,14-4.9,21,2.9,21s10.4-1.7,17.2-5.2,13.7-7.7,20.7-12.5c7-4.9,13.1-9.3,18.4-13.4,5.2-4.1,8.6-6.9,10.2-8.5.4-.4.7-.6.9-.6h.9c1.2,0,2.2.5,3.2,1.5,1,1,1.5,2.2,1.5,3.8,0,3.1-.8,5.8-2.3,8.2-10.1,12.1-20.9,22.9-32.4,32.6-11.5,9.7-23.3,17.4-35.6,23s-24.6,8.5-37,8.5-7-1.3-10.5-3.8c-3.5-2.5-6.1-5.7-7.9-9.6-1.7-3.9-1.7-8,.3-12.2,11.3-26,22.6-52,34.1-77.8,11.5-25.8,22.2-51.8,32.4-77.8,6.2-15.9,8.3-27.1,6.4-33.5-2-6.4-5.6-9.8-11.1-10.2-4.3-.4-9.3,1.1-15.2,4.4-5.8,3.3-12.4,8.4-19.8,15.2-7.4,6.8-15.4,15.5-23.9,25.9-4.7,5.5-10.9,13.9-18.7,25.4-7.8,11.5-16.5,24.7-26.2,39.6-9.7,15-19.7,30.9-30,47.8-10.3,16.9-20.1,33.5-29.4,49.8-3.5,6.2-6.6,10.8-9.3,13.7-2.7,2.9-5.6,4.4-8.7,4.4h0Z"/>
      <path class="st1" d="M348.6,252.4c-8.2,0-16.4-3.1-24.8-9.3s-15.2-14.1-20.7-23.6c-5.5-9.5-8.2-18.7-8.2-27.7,0-19.4,4-40.1,11.9-62.1,8-21.9,19-42.6,32.9-61.8,14-19.2,30.2-35,48.7-47.2,18.4-12.2,38-18.4,58.6-18.4s24.2,2.8,31.8,8.5c7.6,5.6,11.4,13.5,11.4,23.6s-3.8,22.5-11.4,31.5c-7.6,8.9-17.8,16.6-30.6,23s-27.1,11.8-42.9,16c-15.7,4.3-31.8,8-48.1,11.1-2.3.4-4.2.9-5.5,1.5-1.4.6-2.4,2-3.2,4.4-2.7,8.6-5.5,17.9-8.2,28-2.7,10.1-4.1,19.6-4.1,28.6,0,13.6,2.6,24.1,7.9,31.5,5.2,7.4,12.9,11.1,23,11.1s25.8-3.5,35.6-10.5c9.7-7,17.7-14,23.9-21,3.9-4.3,7.4-6.4,10.5-6.4s5.8,2,5.8,5.8v2c0,1-.4,1.8-1.2,2.6-7.8,12.8-16.5,23.6-26.2,32.4-9.7,8.7-20.1,15.4-31.2,19.8-11.1,4.5-23,6.7-35.9,6.7h0ZM361.4,102.6c4.3,0,11.6-1.3,21.9-3.8,10.3-2.5,21.1-6.6,32.4-12.2,11.3-5.6,20.9-12.6,28.9-21,8-8.3,11.9-18.4,11.9-30s-1.4-9.4-4.1-13.1c-2.7-3.7-6.6-5.5-11.7-5.5-8.2,0-17,3.4-26.5,10.2-9.5,6.8-18.6,15-27.1,24.5-8.6,9.5-15.6,18.7-21.3,27.7-5.6,8.9-8.5,15.5-8.5,19.8s1.4,3.5,4.1,3.5h0Z"/>
      <path class="st1" d="M524.6,251.9c-4.3,0-8.6-1.8-13.1-5.5-4.5-3.7-7.9-8.1-10.2-13.1-2.3-5-2.9-9.1-1.7-12.2l61.2-147.5c2.7-6.6,4.5-12.2,5.2-16.9.8-4.7-.4-7-3.5-7s-5.2,1.6-9.6,4.7c-4.5,3.1-9.5,7-15.2,11.7-5.6,4.7-11.4,9.5-17.2,14.6-.8.8-2.2,1-4.4.6-2.1-.4-3.2-1.2-3.2-2.3s.4-3.8,1.2-6.7c.8-2.9,2.7-6.5,5.8-10.8,9.7-13.2,20.5-24.3,32.4-33.2,11.8-8.9,23.1-15.8,33.8-20.7,10.7-4.9,18.7-7.3,24.2-7.3s4.2,1.1,6.7,3.2c2.5,2.1,4.6,4.7,6.1,7.6,1.5,2.9,1.5,5.7,0,8.5-12.8,26.4-25.1,53.2-36.7,80.4-11.7,27.2-23.3,54-35,80.4-3.5,7.8-5.6,15-6.4,21.6-.8,6.6.8,9.9,4.7,9.9s9.7-3.3,17.5-9.9c7.8-6.6,16.6-15.2,26.5-25.6,9.9-10.5,20.3-21.8,31.2-33.8,14.8-16.7,29-34,42.9-51.9,13.8-17.9,25.7-34,35.9-48.4,10.1-14.4,16.7-24.5,19.8-30.3,1.9-3.9,4.3-6.4,7-7.6,2.7-1.2,5.2-1.7,7.6-1.7s4.7,1.2,7,3.5,4.2,5.1,5.5,8.2c1.4,3.1,1.5,5.8.3,8.2l-74.6,171.4c-3.1,7.4-4.5,13-4.1,16.9.4,3.9,2.3,5.8,5.8,5.8,5,0,11.7-2.7,19.8-8.2,8.2-5.4,16.5-11.8,25.1-19,8.5-7.2,15.7-13.7,21.6-19.5.4-.4,1-.6,1.7-.6,1.2,0,2.3.5,3.5,1.5s1.7,2.2,1.7,3.8-.2,1.6-.6,2.3c-.4.8-.9,1.7-1.5,2.9s-1.4,2.5-2.3,4.1c-1,1.6-2.1,3.2-3.5,4.9-1.4,1.7-3,3.8-4.9,6.1-7.4,9.3-15.9,18.4-25.6,27.1-9.7,8.7-20.1,15.9-31.2,21.6-11.1,5.6-22.8,8.5-35.3,8.5s-9.6-3.3-13.7-9.9c-4.1-6.6-4.9-12.4-2.6-17.5,5.4-11.7,11.3-24.1,17.5-37.3,6.2-13.2,11.8-25.4,16.6-36.7,4.9-11.3,8.3-19.6,10.2-25.1,1.9-4.7,1.7-7.2-.6-7.6-2.3-.4-4.5.6-6.4,2.9-20.2,22.1-38.1,41.5-53.6,58-15.5,16.5-29,30.1-40.5,40.8-11.5,10.7-21.2,18.7-29.1,24.2-8,5.4-14.5,8.2-19.5,8.2h0Z"/>
    </g>
    <g>
      <path class="st1" d="M16.8,700c-2.3,0-4.7-.8-7.4-2.4-2.7-1.6-4.9-3.6-6.7-6.1-1.8-2.5-2.7-5.1-2.7-7.8,0-5.4,1.4-12.2,4.4-20.5,2.9-8.3,6.6-18.7,11.1-31.3l62-161.7c2.2-5.8,3.2-11.2,3-16.2-.2-4.9-2.6-7.4-7.1-7.4s-12.5.8-18.5,2.4c-6.1,1.6-10.7,3.3-13.8,5.1-2.7,1.8-5.3,2.1-7.8,1-2.5-1.1-3.7-3.2-3.7-6.4s1.7-7.6,5.1-12.1c3.4-4.5,8-8.8,13.8-12.8,5.4-4,11.8-7.4,19.2-10.1,7.4-2.7,15.2-4,23.2-4,12.6,0,20.5,3.2,23.9,9.4,3.4,6.3,3.8,14.7,1.3,25.3-2.5,10.6-6.4,22.6-11.8,36l-30.3,76.1c-1.8,3.2-1.2,5.2,1.7,6.1,2.9.9,5.1.2,6.4-2,18-31,36-58,54.2-81.2,18.2-23.1,35.1-41.1,50.9-53.9,15.7-12.8,28.7-19.2,39.1-19.2s19.9,3.4,24.6,10.1c4.7,6.7,7.1,14.6,7.1,23.6s-1.5,16.4-4.4,24.9c-2.9,8.5-7,15.6-12.1,21.2-5.2,5.6-10.9,8.4-17.2,8.4s-6.3-2.1-8.1-6.4c-1.8-4.3-2.7-10-2.7-17.2s-.9-12-2.7-15.8c-1.8-3.8-5.2-5.7-10.1-5.7s-10.4,2.9-17.8,8.8c-7.4,5.8-16.7,15.9-28,30.3-4.9,6.7-11.5,15.9-19.5,27.6-8.1,11.7-16.7,24.6-25.9,38.7-9.2,14.1-18.3,28.5-27.3,43.1-9,14.6-16.8,28-23.6,40.1-12.1,21.6-20.8,37.3-25.9,47.2-5.2,9.9-10.4,14.8-15.8,14.8h0Z"/>
      <path class="st1" d="M276.2,698c-7.6,0-13.9-2.5-18.9-7.4-4.9-4.9-7.4-10.1-7.4-15.5s.1-3.6.3-5.4c.2-1.8.8-3.6,1.7-5.4,18.4-37.3,33.9-72.4,46.5-105.4,12.6-33,23.8-61.9,33.7-86.6,1.8-5.4.7-8.1-3.4-8.1s-6.6,1.2-13.1,3.7c-6.5,2.5-13.4,5.7-20.5,9.8-7.2,4-13.5,8.1-18.9,12.1-2.3,1.8-4.5,2.3-6.7,1.3-2.3-.9-3.4-2.5-3.4-4.7s1.7-5.5,5.1-9.8c3.4-4.3,8.1-9.1,14.1-14.5,6.1-5.4,13.4-11.1,21.9-17.2,8.5-6.1,17.8-12.1,28-18.2,10.1-6.1,20.8-11.6,32-16.5,4-1.8,8.1-1.3,12.1,1.4s7.3,6.1,9.8,10.1c2.5,4,3.2,7.2,2.4,9.4l-82.2,194.7c-1.8,3.6-3,7.1-3.7,10.4s-1,6.4-1,9.1,1.2,5.3,3.7,6.4c2.5,1.1,4.8,1.7,7.1,1.7,6.3,0,13.5-3,21.6-9.1,8.1-6.1,16.7-13.5,25.9-22.2,9.2-8.8,18.1-17.4,26.6-25.9.9-.9,1.8-1.4,2.7-1.4s1.8.3,2.7,1c.9.7,1.4,1.5,1.4,2.4,0,7.2-4.3,16.3-12.8,27.3-8.5,11-19.2,22-32,33-12.8,11-25.9,20.3-39.4,28-13.5,7.6-25.4,11.5-35.7,11.5h0ZM412.3,342.9c-6.7,0-12.4-2.7-16.8-8.1-4.5-5.4-6.7-11.5-6.7-18.2,0-10.8,3.6-20.3,10.8-28.6,7.2-8.3,16.2-12.5,27-12.5s12.8,3,16.8,9.1c4,6.1,6.1,12.7,6.1,19.9s-3.6,18.8-10.8,26.6c-7.2,7.9-15.9,11.8-26.3,11.8h0Z"/>
      <path class="st1" d="M446,698c-6.7,0-13-2.1-18.9-6.4-5.8-4.3-8.8-10.7-8.8-19.2s1.7-11.3,5.1-17.8c3.4-6.5,7.5-12.2,12.5-17.2s9.2-7.4,12.8-7.4,6.2,1.2,7.8,3.7c1.6,2.5,2.6,5.3,3,8.4,1.3,5.4,3.1,9.3,5.4,11.8,2.2,2.5,4.7,3.7,7.4,3.7,3.1.5,6.3-.1,9.4-1.7,3.1-1.6,6.1-3.7,8.8-6.4,9-9.4,17-18.1,23.9-25.9,7-7.9,14-16.1,21.2-24.6,7.2-8.5,15.5-18.2,24.9-29,1.8-1.8,2.8-3.8,3-6.1.2-2.2-.1-4.3-1-6.1l-25.6-94.3c-1.4-4.9-2.7-8.1-4-9.4-1.4-1.3-3.4-2-6.1-2s-8.1,2.8-14.8,8.4c-6.7,5.6-14.4,14.5-22.9,26.6-.9,1.4-2.3,3.5-4,6.4-1.8,2.9-4.3,4.4-7.4,4.4s-3-1.1-3.7-3.4c-.7-2.2-1-4.9-1-8.1,0-6.7,2.4-14.4,7.1-22.9,4.7-8.5,10.7-17,17.8-25.3,7.2-8.3,15-15.2,23.6-20.5,8.5-5.4,16.4-8.1,23.6-8.1s12.9,2.8,17.2,8.4c4.3,5.6,8,14.3,11.1,25.9l16.8,71.4c1.3,7.2,4.5,7.6,9.4,1.3l47.2-67.4c6.7-9.4,15.5-18.4,26.3-27,10.8-8.5,22.2-12.8,34.4-12.8s16.8,3.5,23.6,10.4c6.7,7,10.3,13.1,10.8,18.5.4,3.2-.9,7.8-4,13.8-3.2,6.1-6.9,11.5-11.1,16.2-4.3,4.7-8.4,7.1-12.5,7.1s-5.1-1.1-7.1-3.4c-2-2.2-3.7-4.9-5.1-8.1-2.3-6.3-4.5-10.4-6.7-12.5-2.3-2-4.9-3-8.1-3-5.4,0-11.2,2.4-17.5,7.1-6.3,4.7-13.2,11.8-20.9,21.2-6.3,7.2-13.1,15.4-20.5,24.6-7.4,9.2-15.4,20.3-23.9,33.4-1.8,2.7-2.9,5.8-3.4,9.4-.5,3.6.2,8.3,2,14.1l22.9,82.9c1.8,5.8,4,10,6.7,12.5,2.7,2.5,5.2,3.7,7.4,3.7,6.3,0,13.6-4.8,21.9-14.5,8.3-9.7,15.8-22.8,22.6-39.4,2.7-6.3,5.6-9.4,8.8-9.4s3.2.8,4.4,2.4c1.1,1.6,1.7,5.7,1.7,12.5s-1.8,14.4-5.4,24.3c-3.6,9.9-8.5,19.8-14.8,29.6-6.3,9.9-13.7,18.2-22.2,24.9-8.5,6.7-17.7,10.1-27.6,10.1s-21.8-3.8-27.6-11.5c-5.8-7.6-10.8-18.9-14.8-33.7-2.3-9.4-4.7-19.6-7.4-30.7-2.7-11-5.2-21.2-7.4-30.7-1.3-5.4-2.8-8.3-4.4-8.8-1.6-.4-3.7,1.1-6.4,4.7-10.8,13.5-21.6,27.4-32.3,41.8-10.8,14.4-21.8,28.1-33,41.1-9.4,11.2-18.1,18.6-25.9,22.2-7.9,3.6-15.8,5.4-23.9,5.4h0Z"/>
    </g>
  </g>
</svg>