<?xml version="1.0" encoding="UTF-8"?>
<svg id="Layer_1" xmlns="http://www.w3.org/2000/svg" version="1.1" viewBox="0 0 800 800">
  <!-- Generator: Adobe Illustrator 29.5.1, SVG Export Plug-In . SVG Version: 2.1.0 Build 141)  -->
  <defs>
    <style>
      .st0 {
        fill: #076666;
      }
    </style>
  </defs>
  <g>
    <path class="st0" d="M173.7,340.1c-1.8,0-2.7,0-4.5-1.8-.9-.9-2.7-2.7-3.6-4.5s-1.8-3.6-1.8-5.4v-5.4l42.9-104.6c4.5-10.7,4.5-16.1,0-16.1s-5.4,0-8,.9c-2.7,0-5.4,1.8-8.9,4.5s-7.2,6.3-10.7,11.6c-.9.9-1.8,1.8-3.6.9-.9,0-1.8-.9-2.7-2.7,0-1.8,0-3.6.9-5.4,0-2.7,1.8-4.5,3.6-7.2.9-2.7,2.7-4.5,3.6-5.4,3.6-5.4,8.9-9.8,15.2-13.4s13.4-5.4,21.5-5.4,5.4,0,7.2,1.8,3.6,3.6,5.4,5.4c.9,2.7.9,5.4,0,8l-24.1,62.6v2.7c.9,0,1.8,0,2.7-1.8,9.8-17,20.6-31.3,30.4-43.8,10.7-11.6,20.6-20.6,30.4-26.8,9.8-6.3,17.9-8.9,25-8.9s9.8,1.8,13.4,5.4,6.3,8,7.2,14.3c.9,6.3,0,12.5-3.6,20.6l-34,80.5c-3.6,8.9-2.7,13.4,1.8,13.4s6.3-.9,10.7-3.6,8.9-4.5,13.4-8c4.5-2.7,8-6.3,11.6-8,3.6-2.7,5.4-4.5,6.3-5.4h0s1.8,0,1.8.9.9,1.8.9,2.7c0,1.8,0,3.6-1.8,5.4-6.3,8-13.4,14.3-20.6,20.6-7.2,6.3-14.3,10.7-22.4,14.3-8,3.6-15.2,5.4-23.3,5.4s-4.5,0-6.3-2.7-3.6-3.6-5.4-6.3c-.9-2.7-.9-5.4,0-8,7.2-16.1,14.3-33.1,21.5-49.2,7.2-16.1,14.3-33.1,20.6-49.2,3.6-9.8,5.4-17,4.5-21.5s-3.6-6.3-7.2-6.3-6.3,0-9.8,2.7c-3.6,1.8-8,5.4-12.5,9.8s-9.8,9.8-15.2,16.1c-2.7,3.6-7.2,8.9-11.6,16.1s-10.7,15.2-16.1,25c-6.3,9.8-12.5,19.7-18.8,30.4-6.3,10.7-12.5,21.5-18.8,31.3-1.8,3.6-4.5,7.2-6.3,8.9s-3.6,2.7-5.4,2.7h0l4.5,1.8Z"/>
    <path class="st0" d="M383,340.1c-5.4,0-10.7-1.8-15.2-6.3s-9.8-8.9-13.4-15.2-5.4-11.6-5.4-17.9c0-12.5,2.7-25,7.2-39.4,5.4-13.4,11.6-26.8,20.6-39.4,8.9-12.5,18.8-22.4,30.4-29.5,11.6-8,24.1-11.6,36.7-11.6s15.2,1.8,19.7,5.4,7.2,8.9,7.2,15.2-2.7,14.3-7.2,19.7-11.6,10.7-19.7,14.3-17,7.2-26.8,9.8c-9.8,2.7-19.7,5.4-30.4,7.2-1.8,0-2.7,0-3.6.9,0,0-1.8.9-1.8,2.7-1.8,5.4-3.6,11.6-5.4,17.9s-2.7,12.5-2.7,17.9c0,8.9,1.8,15.2,5.4,19.7,3.6,4.5,8,7.2,14.3,7.2s16.1-1.8,22.4-6.3,10.7-8.9,15.2-13.4,4.5-4.5,6.3-4.5,3.6.9,3.6,3.6h0v2.7c-5.4,8-10.7,15.2-16.1,20.6-6.3,5.4-12.5,9.8-19.7,12.5-7.2,2.7-14.3,4.5-22.4,4.5h0l.9,1.8ZM391.1,245.3c2.7,0,7.2,0,13.4-2.7s13.4-4.5,20.6-8c7.2-3.6,13.4-8,17.9-13.4,5.4-5.4,7.2-11.6,7.2-18.8s0-6.3-2.7-8-4.5-3.6-7.2-3.6c-5.4,0-10.7,1.8-17,6.3-6.3,4.5-11.6,9.8-17,15.2-5.4,6.3-9.8,11.6-13.4,17.9-3.6,5.4-5.4,9.8-5.4,12.5s0,1.8,2.7,1.8h0l.9.9Z"/>
    <path class="st0" d="M494.8,339.2c-2.7,0-5.4-.9-8-3.6s-5.4-5.4-6.3-8c-1.8-3.6-1.8-5.4-.9-8l38.5-93c1.8-4.5,2.7-8,3.6-10.7,0-2.7,0-4.5-1.8-4.5s-3.6.9-6.3,2.7c-2.7,1.8-6.3,4.5-9.8,7.2-3.6,2.7-7.2,6.3-10.7,8.9h-2.7c-.9,0-1.8,0-1.8-1.8v-4.5c0-1.8,1.8-4.5,3.6-7.2,6.3-8,12.5-15.2,20.6-20.6,7.2-5.4,14.3-9.8,21.5-13.4,7.2-2.7,11.6-4.5,15.2-4.5s2.7,0,4.5,1.8c1.8.9,2.7,2.7,3.6,4.5s.9,3.6,0,5.4c-8,17-16.1,34-23.3,51-7.2,17-14.3,34-22.4,51-1.8,5.4-3.6,9.8-4.5,13.4,0,4.5,0,6.3,2.7,6.3s6.3-1.8,10.7-6.3c5.4-4.5,10.7-9.8,17-16.1,6.3-6.3,12.5-13.4,19.7-21.5,8.9-10.7,17.9-21.5,26.8-33.1,8.9-11.6,16.1-21.5,22.4-30.4s10.7-15.2,12.5-18.8c.9-2.7,2.7-4.5,4.5-4.5s3.6-.9,4.5-.9,2.7,0,4.5,1.8,2.7,3.6,3.6,5.4c0,1.8.9,3.6,0,5.4l-47.4,108.2c-1.8,4.5-2.7,8-2.7,10.7s1.8,3.6,3.6,3.6c3.6,0,7.2-1.8,12.5-5.4,5.4-3.6,10.7-7.2,16.1-11.6,5.4-4.5,9.8-8.9,13.4-12.5h.9s1.8,0,1.8.9.9,1.8.9,2.7v1.8s0,.9-.9,1.8,0,1.8-1.8,2.7c0,.9-.9,1.8-1.8,2.7s-1.8,2.7-2.7,3.6c-4.5,6.3-9.8,11.6-16.1,17-6.3,5.4-12.5,9.8-19.7,13.4-7.2,3.6-14.3,5.4-22.4,5.4s-6.3-1.8-8.9-6.3-2.7-8-1.8-10.7c3.6-7.2,7.2-15.2,10.7-23.3s7.2-16.1,10.7-23.3c2.7-7.2,5.4-12.5,6.3-16.1.9-2.7.9-4.5,0-4.5s-2.7,0-4.5,1.8c-12.5,14.3-24.1,25.9-34,36.7-9.8,10.7-17.9,18.8-25.9,25.9s-13.4,11.6-18.8,15.2c-5.4,3.6-8.9,5.4-12.5,5.4h0l3.6.9Z"/>
  </g>
  <g>
    <path class="st0" d="M173.7,621.8c-1.8,0-2.7,0-4.5-1.8-1.8-.9-2.7-2.7-4.5-3.6-.9-1.8-1.8-3.6-1.8-5.4,0-3.6,0-8,2.7-12.5,1.8-5.4,4.5-11.6,7.2-19.7l39.4-102c1.8-3.6,1.8-7.2,1.8-9.8s-1.8-4.5-4.5-4.5-8,0-11.6,1.8c-3.6.9-7.2,1.8-8.9,3.6-1.8.9-3.6.9-5.4,0s-2.7-1.8-2.7-4.5.9-4.5,3.6-8c1.8-2.7,5.4-5.4,8.9-8,3.6-2.7,7.2-4.5,12.5-6.3,4.5-1.8,9.8-2.7,14.3-2.7,8,0,12.5,1.8,15.2,6.3,1.8,3.6,2.7,8.9,0,16.1-1.8,6.3-4.5,14.3-7.2,22.4l-18.8,48.3c-.9,1.8,0,3.6.9,3.6,1.8,0,3.6,0,4.5-.9,11.6-19.7,22.4-36.7,34-51,11.6-14.3,22.4-25.9,32.2-34,9.8-8,17.9-12.5,25-12.5s12.5,1.8,15.2,6.3,4.5,8.9,4.5,15.2-.9,10.7-2.7,16.1-4.5,9.8-8,13.4-7.2,5.4-10.7,5.4-3.6-.9-5.4-4.5-1.8-6.3-1.8-10.7,0-7.2-1.8-9.8-3.6-3.6-6.3-3.6-6.3,1.8-11.6,5.4c-4.5,3.6-10.7,9.8-17.9,18.8-2.7,4.5-7.2,9.8-12.5,17-5.4,7.2-10.7,15.2-16.1,24.1-5.4,8.9-11.6,17.9-17,26.8s-10.7,17.9-15.2,25c-8,13.4-13.4,23.3-16.1,29.5-3.6,6.3-6.3,8.9-9.8,8.9h0l.9,1.8Z"/>
    <path class="st0" d="M337.4,620.9c-4.5,0-8.9-1.8-11.6-4.5s-4.5-6.3-4.5-9.8v-3.6c0-.9,0-2.7.9-3.6,11.6-23.3,21.5-45.6,29.5-66.2s15.2-39.4,21.5-54.6c.9-3.6,0-5.4-1.8-5.4s-4.5,0-8,2.7c-3.6,2.7-8,3.6-12.5,6.3s-8.9,5.4-11.6,8c-1.8.9-2.7,1.8-4.5,0-1.8,0-1.8-1.8-1.8-2.7s.9-3.6,3.6-6.3,5.4-5.4,8.9-8.9,8-7.2,13.4-10.7,11.6-8,17.9-11.6c6.3-3.6,13.4-7.2,20.6-10.7,2.7-.9,5.4,0,8,0s4.5,3.6,6.3,6.3,1.8,4.5,1.8,6.3l-51.9,122.5c-.9,2.7-1.8,4.5-2.7,6.3s0,4.5,0,5.4,0,3.6,2.7,4.5c1.8,0,2.7.9,4.5.9,3.6,0,8.9-1.8,13.4-5.4s10.7-8.9,16.1-14.3,11.6-10.7,17-16.1h3.6v1.8c0,4.5-2.7,9.8-8,17-5.4,7.2-12.5,14.3-20.6,20.6-8,6.3-16.1,12.5-25,17.9-8.9,4.5-16.1,7.2-22.4,7.2h0l-2.7.9ZM423.3,396.4c-4.5,0-8-1.8-10.7-5.4-2.7-3.6-4.5-7.2-4.5-11.6,0-7.2,2.7-12.5,7.2-17.9s9.8-8,17-8,8,1.8,10.7,5.4,3.6,8,3.6,12.5-2.7,11.6-7.2,17c-4.5,5.4-9.8,7.2-17,7.2h0l.9.9Z"/>
    <path class="st0" d="M444.7,620.9c-4.5,0-8-.9-11.6-4.5-3.6-2.7-5.4-7.2-5.4-12.5s.9-7.2,3.6-11.6,4.5-8,8-10.7,5.4-4.5,8-4.5,3.6,0,5.4,2.7c.9,1.8,1.8,3.6,1.8,5.4,0,3.6,1.8,6.3,3.6,7.2,1.8,1.8,2.7,2.7,4.5,2.7s3.6,0,6.3-.9c1.8-.9,3.6-2.7,5.4-4.5,5.4-6.3,10.7-11.6,15.2-16.1,4.5-5.4,8.9-9.8,13.4-15.2s9.8-11.6,16.1-17.9c.9-.9,1.8-2.7,1.8-3.6v-3.6l-16.1-59.9c0-2.7-1.8-5.4-2.7-6.3,0,0-1.8-.9-3.6-.9s-5.4,1.8-8.9,5.4-8.9,8.9-14.3,17c0,0-1.8,1.8-2.7,4.5-.9,1.8-2.7,2.7-4.5,2.7s-1.8,0-2.7-1.8v-5.4c0-4.5,1.8-8.9,4.5-14.3,2.7-5.4,7.2-10.7,11.6-16.1s9.8-9.8,15.2-12.5c5.4-3.6,10.7-5.4,15.2-5.4s8,1.8,10.7,5.4c2.7,3.6,5.4,8.9,7.2,16.1l10.7,44.7c0,4.5,2.7,4.5,6.3,0l29.5-42.9c4.5-6.3,9.8-11.6,17-17,7.2-5.4,14.3-8,21.5-8s10.7,1.8,15.2,6.3,6.3,8,7.2,11.6c0,1.8,0,5.4-2.7,8.9-1.8,3.6-4.5,7.2-7.2,9.8s-5.4,4.5-8,4.5-3.6,0-4.5-1.8-2.7-2.7-3.6-5.4c-1.8-3.6-2.7-6.3-4.5-8-1.8-.9-2.7-1.8-5.4-1.8s-7.2,1.8-10.7,4.5-8,7.2-13.4,13.4c-3.6,4.5-8,9.8-12.5,15.2s-9.8,12.5-15.2,21.5c-.9,1.8-1.8,3.6-1.8,6.3s0,5.4.9,8.9l14.3,51.9c.9,3.6,2.7,6.3,4.5,8s3.6,2.7,4.5,2.7c3.6,0,8.9-2.7,13.4-8.9,5.4-6.3,9.8-14.3,14.3-25,1.8-3.6,3.6-6.3,5.4-6.3s1.8,0,2.7,1.8c0,.9.9,3.6.9,8s-.9,8.9-3.6,15.2-5.4,12.5-8.9,18.8c-3.6,6.3-8.9,11.6-14.3,16.1s-10.7,6.3-17,6.3-13.4-2.7-17-7.2-7.2-11.6-8.9-21.5c-1.8-6.3-2.7-12.5-4.5-19.7-1.8-7.2-3.6-13.4-4.5-19.7,0-3.6-1.8-5.4-2.7-5.4s-2.7,0-4.5,2.7c-7.2,8.9-13.4,17-20.6,25.9s-13.4,17.9-20.6,25.9c-6.3,7.2-11.6,11.6-16.1,14.3-5.4,2.7-9.8,3.6-15.2,3.6h0l-5.4.9Z"/>
  </g>
</svg>